# Blender 3.3.1
# www.blender.org
mtllib ArmL.mtl
o SketchUp
v 1.456463 -2.476892 1.239258
v 1.579644 -2.609883 1.772625
v 1.495739 -2.702222 1.755251
v 1.500383 -2.384644 1.239258
v 1.485547 -2.643749 1.951978
v 1.424303 -2.292395 1.239258
v 1.431357 -2.332865 1.824746
v 1.547453 -2.425204 1.807372
v 1.456463 -2.476892 1.982866
vn -0.2518 -0.8669 -0.4302
vn 0.9519 -0.2959 0.0795
vn -0.2090 -0.9751 -0.0747
vn 0.9643 0.2146 -0.1554
vn -0.1172 -0.5793 0.8066
vn -0.4228 0.9061 -0.0142
vn -0.4531 0.8202 0.3493
vn 0.8582 0.4489 0.2489
vn -0.2460 0.1743 0.9535
vt 5.317721 -6.395768
vt 5.172049 -7.170906
vt -4.479165 -8.443312
vt 7.248602 -6.866297
vt 7.109380 -7.619059
vt 5.536994 -5.505409
vt 6.563993 -8.898441
vt 4.981054 -8.757652
vt 4.977697 -8.753005
vt 7.154885 -7.193001
vt 5.500574 -5.841383
vt -6.344166 -9.185382
vt 5.185719 -6.860042
vt 4.632386 -8.156237
vt 4.532672 -8.768270
vt 6.204604 -5.628630
vt 5.651224 -8.868833
vt -7.055213 -8.992814
vt -4.479165 -7.835710
vt 4.315358 -8.551797
vt 4.531024 -8.440897
vt -6.595349 -7.968990
vt 6.429627 -8.708112
vt 4.384011 -9.527975
vt 6.687489 -8.289892
vt 6.359128 -9.064765
vt 6.586932 -8.912211
vt 5.114110 -8.146733
vt 4.244718 -9.867548
vt 5.772696 -8.321052
vt -7.166856 -8.443312
vt 5.769349 -8.316418
vt 4.893125 -10.057630
s 1
usemtl SkinMaterial
f 1/1/1 2/4/2 3/10/3
f 4/13/4 2/5/2 1/2/1
f 3/11/3 2/6/2 5/16/5
f 6/19/6 3/12/3 7/22/7
f 3/12/3 6/19/6 1/3/1
f 4/14/4 8/25/8 2/7/2
f 2/8/2 9/30/9 5/17/5
f 7/22/7 5/18/5 9/31/9
f 5/18/5 7/22/7 3/12/3
f 8/26/8 6/20/6 7/23/7
f 6/21/6 8/27/8 4/15/4
f 2/9/2 8/28/8 9/32/9
f 8/29/8 7/24/7 9/33/9
o SketchUp.001
v 1.097301 -0.601059 -0.008178
v 1.329791 -1.934833 0.088812
v 1.577861 -2.095870 -0.022618
v 1.385931 -0.639391 -0.219042
v 1.385931 -2.256908 -0.134049
v 1.058394 -0.377849 -0.271812
v 1.110664 -0.677722 -0.429905
v 1.329791 -1.934833 0.088812
v 1.500383 -2.384644 1.239258
v 1.424303 -2.292395 1.239258
v 1.456463 -2.476892 1.239258
vn -0.4295 0.3519 0.8317
vn -0.8452 -0.1180 0.5212
vn 0.9410 -0.0562 0.3337
vn 0.7260 0.5283 0.4403
vn -0.6497 -0.7561 -0.0783
vn -0.4149 0.8923 -0.1778
vn -0.8778 0.0945 -0.4695
vn 0.6075 0.7662 0.2095
vn 0.9991 0.0427 0.0010
vn -0.4393 0.8493 0.2928
vn -0.0963 -0.9836 -0.1526
vt -2.295431 -2.244522
vt -1.896562 -2.319426
vt 0.026832 -2.261090
vt -1.670415 -3.272928
vt -2.312191 -6.648487
vt -0.291377 -6.653575
vt -0.335067 -6.678536
vt -2.855937 -7.180214
vt -2.368724 -7.264351
vt -0.812444 -8.015940
vt 0.308018 -4.108796
vt -2.734723 -2.446228
vt -2.504789 -3.422635
vt 1.734355 -3.231382
vt 0.439793 -7.714258
vt 0.394994 -7.739982
vt -0.084658 -4.706898
vt 0.394193 -7.714663
vt -0.191237 -6.300505
vt 0.891772 -1.525996
vt -2.397391 -2.401152
vt 1.275699 -2.312363
vt 1.410450 -2.513561
vt 0.909628 -3.366072
vt -0.380984 -7.389652
vt -0.039138 -7.318691
vt 3.285387 -9.139002
vt 3.696782 -8.914122
vt 4.419367 -5.181316
vt 4.317174 -6.731250
vt -4.111033 -7.856934
vt 3.707610 -8.586925
vt -4.111836 -7.831531
vt -4.112454 -8.439133
vt 4.312586 -7.042328
s 1
usemtl CoatMaterial
f 10/34/10 11/38/11 12/41/12
f 10/35/10 12/42/12 13/45/13
f 10/36/10 14/48/14 11/39/11
f 14/48/14 10/36/10 15/53/15
f 14/48/14 15/53/15 16/56/16
f 12/43/12 17/58/17 18/60/18
f 13/46/13 15/54/15 10/37/10
f 15/55/15 13/47/13 16/57/16
f 14/49/14 19/64/19 11/40/11
f 17/59/17 19/65/19 18/61/18
f 12/44/12 18/62/18 14/50/14
f 14/51/14 20/67/20 19/66/19
f 14/52/14 18/63/18 20/68/20
o SketchUp.002
v 1.385931 -0.639391 -0.219042
v 1.577861 -2.095870 -0.022618
v 1.110664 -0.677722 -0.429905
v 1.110664 -0.677722 -0.429905
v 1.577861 -2.095870 -0.022618
v 1.385931 -0.639391 -0.219042
v 1.385931 -2.256908 -0.134049
v 1.385931 -2.256908 -0.134049
vn 0.6102 -0.0264 -0.7918
vn 0.5482 -0.0590 -0.8342
vn 0.6024 -0.0306 -0.7976
vn -0.6024 0.0306 0.7976
vn -0.5482 0.0590 0.8342
vn -0.6102 0.0264 0.7918
vn 0.5401 -0.0631 -0.8392
vn -0.5401 0.0631 0.8392
vt -3.162893 -2.008802
vt -4.055032 -6.788941
vt -4.312828 -6.681881
vt -2.025267 -2.134604
vt -2.300726 -2.019882
vt 0.819063 -2.156953
vt 1.143044 -2.056259
vt 2.357178 -6.810436
vt 2.668459 -6.713919
vt 1.645196 -2.031174
vt -3.585472 -7.211274
vt 2.186602 -7.242819
s 1
usemtl CoatMaterial
f 21/69/21 22/70/22 23/72/23
f 24/74/24 25/76/25 26/78/26
f 23/73/23 22/71/22 27/79/27
f 28/80/28 25/77/25 24/75/24
