# Blender 3.3.1
# www.blender.org
mtllib Body.mtl
o SketchUp
v -1.010000 -0.260000 -0.469339
v 1.270000 -2.899999 -0.469339
v -1.270000 -2.899999 -0.469339
v 1.010000 -0.260000 -0.469339
v 0.000000 -0.260000 0.230661
v -0.170000 -0.260000 -0.294339
v -0.635000 -0.260000 0.042047
v 0.000000 -0.260000 0.000000
v 0.635000 -0.260000 0.042047
v 0.170000 -0.260000 -0.294339
v -1.010000 -0.260000 -0.069339
v 1.010000 -0.260000 -0.069339
v 1.270000 -2.899999 0.600661
v -1.270000 -3.462500 -0.469339
v 1.270000 -3.462500 -0.469339
v 0.000000 -3.650000 -0.469339
v -1.270000 -3.275000 -0.469339
v 1.270000 -3.275000 -0.469339
v -1.270000 -2.899999 0.600661
v 1.270000 -2.969999 0.610661
v 1.270000 -3.462500 0.610661
v -1.270000 -3.462500 0.610661
v 0.000000 -3.650000 0.610661
v -1.270000 -2.969999 0.610661
vn -0.5458 0.6022 -0.5827
vn 0.7170 0.0352 -0.6962
vn -0.7170 0.0352 -0.6962
vn 0.5458 0.6022 -0.5827
vn -0.0000 1.0000 -0.0000
vn -0.6640 0.7478 -0.0000
vn 0.6640 0.7478 -0.0000
vn 0.9991 0.0428 -0.0000
vn -0.6137 -0.5297 -0.5855
vn 0.6137 -0.5297 -0.5855
vn -0.0000 -0.7372 -0.6757
vn -0.0000 -0.0000 1.0000
vn -0.9991 0.0428 -0.0000
vn 1.0000 -0.0000 -0.0000
vn 0.7570 -0.6534 -0.0000
vn -0.7570 -0.6534 -0.0000
vn -0.0000 -1.0000 -0.0000
vn -1.0000 -0.0000 -0.0000
vt 3.313648 -0.853018
vt -3.313648 1.539827
vt -1.539827 -1.173684
vt 1.539827 -9.877005
vt -4.166667 -9.514436
vt 1.539827 -9.514436
vt 4.166667 -9.514436
vt -1.539827 -9.877005
vt -1.539827 -9.514436
vt -3.313648 -0.853018
vt 3.313648 1.539827
vt 1.539827 -1.173684
vt 0.000000 -0.756761
vt -0.557743 0.965680
vt -2.083333 -0.137949
vt 0.000000 0.000000
vt 2.083333 -0.137949
vt 0.557743 0.965680
vt -3.313648 0.227491
vt -0.227491 -1.173684
vt 3.313648 0.227491
vt 0.227491 -1.173684
vt -1.970671 -9.877005
vt -1.970671 -9.514436
vt 4.166667 -11.359910
vt -1.539827 2.462819
vt -1.539827 -11.359910
vt -4.166667 -11.359910
vt 1.539827 -11.359910
vt 1.539827 2.462819
vt 0.000000 -11.975070
vt -1.539827 -1.749013
vt 1.539827 -1.749013
vt 4.166667 -10.744750
vt -1.539827 -10.744750
vt -4.166667 -10.744750
vt 1.539827 -10.744750
vt 1.970671 -9.877005
vt 1.970671 -9.514436
vt -2.003480 -9.744094
vt -2.003480 -11.359910
vt -2.003480 2.462819
vt 2.003480 2.462819
vt 2.003480 -11.359910
vt 2.003480 -1.749013
vt -2.003480 -1.749013
vt 2.003480 -9.744094
s 1
usemtl CoatMaterial
f 1/1/1 2/5/2 3/7/3
f 2/5/2 1/1/1 4/10/4
f 5/13/5 6/14/5 7/15/5
f 6/14/5 5/13/5 8/16/5
f 8/16/5 5/13/5 9/17/5
f 8/16/5 9/17/5 10/18/5
f 7/15/5 1/2/1 11/19/6
f 1/2/1 7/15/5 6/14/5
f 1/2/1 6/14/5 4/11/4
f 4/11/4 6/14/5 10/18/5
f 4/11/4 10/18/5 9/17/5
f 4/11/4 9/17/5 12/21/7
f 2/4/2 12/22/7 13/23/8
f 12/22/7 2/4/2 4/12/4
f 14/25/9 15/28/10 16/31/11
f 15/28/10 14/25/9 17/34/12
f 15/28/10 17/34/12 18/36/12
f 18/36/12 17/34/12 3/7/3
f 18/36/12 3/7/3 2/5/2
f 11/20/6 3/8/3 19/38/13
f 3/8/3 11/20/6 1/3/1
f 15/29/10 20/40/14 21/41/15
f 20/40/14 15/29/10 13/24/8
f 13/24/8 15/29/10 2/6/2
f 2/6/2 15/29/10 18/37/12
f 16/32/11 22/43/16 14/26/9
f 22/43/16 16/32/11 23/45/17
f 19/39/13 22/44/16 24/47/18
f 22/44/16 19/39/13 14/27/9
f 14/27/9 19/39/13 3/9/3
f 14/27/9 3/9/3 17/35/12
f 15/30/10 23/46/17 16/33/11
f 23/46/17 15/30/10 21/42/15
o SketchUp.001
v 0.000000 -0.260000 0.230661
v -0.635000 -2.899999 1.130661
v 0.635000 -2.899999 1.130661
v 0.635000 -0.260000 0.042047
v -0.635000 -0.260000 0.042047
v 0.000000 -3.049999 1.130661
vn -0.0000 0.3732 0.9277
vn -0.0343 0.2902 0.9564
vn 0.0343 0.2902 0.9564
vn 0.2648 0.3676 0.8915
vn -0.2648 0.3676 0.8915
vn -0.0000 -0.0000 1.0000
vt 0.000000 -0.808906
vt -2.083333 -7.848057
vt 2.083333 -7.848057
vt 2.083333 -0.655310
vt -2.083333 -0.655310
vt 0.000000 -8.206367
s 1
usemtl Carpet_Diamond_Olive
f 25/48/19 26/49/20 27/50/21
f 25/48/19 27/50/21 28/51/22
f 29/52/23 26/49/20 25/48/19
f 26/49/20 30/53/24 27/50/21
o SketchUp.002
v 1.010000 -0.260000 -0.069339
v 0.635000 -2.899999 1.130661
v 1.270000 -2.899999 0.600661
v 0.635000 -0.260000 0.042047
v 1.270000 -2.969999 0.610661
vn 0.3317 0.3509 0.8757
vn 0.5926 0.2543 0.7643
vn 0.6299 0.1838 0.7546
vn 0.2648 0.3676 0.8915
vn 0.6370 0.1090 0.7632
vt 0.648252 -0.211993
vt 0.188174 -2.074702
vt 0.686615 -1.995764
vt 0.391564 -0.211993
vt 0.684747 -2.040792
s 1
usemtl CrownMaterial
f 31/54/25 32/55/26 33/56/27
f 34/57/28 32/55/26 31/54/25
f 32/55/26 35/58/29 33/56/27
o SketchUp.003
v -1.010000 -0.260000 -0.069339
v -1.270000 -2.899999 0.600661
v -0.635000 -2.899999 1.130661
v -0.635000 -0.260000 0.042047
v -1.270000 -2.969999 0.610661
vn -0.3317 0.3509 0.8757
vn -0.6299 0.1838 0.7546
vn -0.5926 0.2543 0.7643
vn -0.2648 0.3676 0.8915
vn -0.6370 0.1090 0.7632
vt -0.648252 -0.211993
vt -0.686615 -1.995764
vt -0.188174 -2.074702
vt -0.391564 -0.211993
vt -0.684747 -2.040792
s 1
usemtl CrownMaterial
f 36/59/30 37/60/31 38/61/32
f 36/59/30 38/61/32 39/62/33
f 37/60/31 40/63/34 38/61/32
o SketchUp.004
v 0.170000 0.000000 -0.294339
v -0.170000 0.000000 -0.294339
v 0.000000 0.000000 0.000000
v 0.000000 -0.260000 0.000000
v -0.170000 -0.260000 -0.294339
v 0.170000 -0.260000 -0.294339
vn 0.7206 0.5547 -0.4160
vn -0.7206 0.5547 -0.4160
vn -0.0000 0.5547 0.8320
vn -0.0000 -0.0000 1.0000
vn -0.8661 -0.0000 -0.4999
vn 0.8661 -0.0000 -0.4999
vt 0.614447 0.965680
vt 1.228551 0.000000
vt -0.614447 0.000000
vt -0.614447 0.965680
vt -1.228551 0.000000
vt 0.614447 0.000000
vt 0.000000 0.000000
vt 0.000000 -0.853018
vt -1.228551 -0.853018
vt 0.614447 -0.853018
vt 1.228551 -0.853018
vt -0.614447 -0.853018
s 1
usemtl SkinMaterial
f 41/64/35 42/67/36 43/70/37
f 42/68/36 44/71/38 43/70/37
f 44/71/38 42/68/36 45/72/39
f 46/74/40 43/70/37 44/71/38
f 43/70/37 46/74/40 41/65/35
f 42/69/36 46/75/40 45/73/39
f 46/75/40 42/69/36 41/66/35
o SketchUp.005
v 1.270000 -2.969999 1.742310
v 0.635000 -2.899999 1.130661
v 0.635000 -2.899999 1.771305
v 1.270000 -2.969999 0.610661
v 0.635000 -3.553015 2.424320
v 1.270000 -3.582010 2.354320
v 1.270000 -4.728344 1.861820
v 1.270000 -4.728344 2.354320
v 1.270000 -3.786010 1.861820
v 1.270000 -3.462500 1.538310
v 1.270000 -3.462500 0.610661
v 0.000000 -3.049999 1.130661
v 0.000000 -3.049999 1.771305
v 0.000000 -3.553015 2.274320
v 0.635000 -4.728344 2.424320
v 0.000000 -3.650000 1.460645
v 0.000000 -3.650000 0.610661
v 0.000000 -4.728344 1.674320
v -1.270000 -4.728344 2.354320
v -1.270000 -4.728344 1.861820
v -0.635000 -4.728344 2.424320
v 0.000000 -4.728344 2.274320
v 0.000000 -3.863675 1.674320
v -0.635000 -2.899999 1.130661
v -0.635000 -2.899999 1.771305
v -0.635000 -3.553015 2.424320
v -1.270000 -3.462500 1.538310
v -1.270000 -3.462500 0.610661
v -1.270000 -3.582010 2.354320
v -1.270000 -2.969999 1.742310
v -1.270000 -3.786010 1.861820
v -1.270000 -2.969999 0.610661
vn 0.6743 0.6822 0.2826
vn -0.0303 0.9995 -0.0000
vn -0.0470 0.9266 0.3732
vn 0.8840 0.4675 -0.0000
vn -0.0470 0.3732 0.9266
vn 0.6743 0.2826 0.6822
vn 0.6137 -0.5855 -0.5297
vn 0.6050 -0.5833 0.5420
vn 0.8453 -0.2045 -0.4936
vn 0.8453 -0.4936 -0.2045
vn 0.7570 -0.6534 -0.0000
vn -0.0000 1.0000 -0.0000
vn -0.0000 0.9147 0.4040
vn -0.0000 0.4040 0.9147
vn -0.0453 -0.6708 0.7403
vn -0.0000 -0.9239 -0.3827
vn -0.0000 -1.0000 -0.0000
vn -0.0000 -0.6757 -0.7372
vn -0.6050 -0.5833 0.5420
vn -0.6137 -0.5855 -0.5297
vn 0.0453 -0.6708 0.7403
vn -0.0000 -0.7627 0.6468
vn -0.0000 -0.3827 -0.9239
vn 0.0303 0.9995 -0.0000
vn 0.0470 0.9266 0.3732
vn 0.0470 0.3732 0.9266
vn -0.8453 -0.4936 -0.2045
vn -0.7570 -0.6534 -0.0000
vn -0.6743 0.2826 0.6822
vn -0.6743 0.6822 0.2826
vn -0.8453 -0.2045 -0.4936
vn -0.8840 0.4675 -0.0000
vt -5.716240 -5.209263
vt 3.236426 -11.352160
vt -5.716240 -9.744094
vt -3.709516 -3.113309
vt 3.709516 -0.159774
vt -5.811368 -3.113309
vt 1.163304 -11.029309
vt 5.811368 -0.159774
vt 3.363529 -10.428920
vt -2.003480 -5.209263
vt -2.003480 -9.744094
vt 0.833289 -14.041150
vt 3.856061 -13.418489
vt 1.199271 -11.656870
vt 3.856061 -11.656870
vt 2.927134 -14.174880
vt -7.724147 -11.752001
vt 3.295224 -11.752001
vt -6.108334 -15.512939
vt -4.166667 -6.108334
vt -5.014136 -15.512939
vt -7.724147 -15.512939
vt 3.295224 -15.512939
vt -4.166667 -7.724147
vt -6.108334 -12.421289
vt -5.014136 -12.421289
vt -5.327157 -12.463380
vt -5.046948 -11.359910
vt -5.046948 2.462819
vt -5.110227 -10.978109
vt -2.003480 -11.359910
vt -2.003480 2.462819
vt 3.709516 -2.300443
vt -3.709516 -2.300443
vt 5.811368 -2.300443
vt 1.335996 -11.115640
vt -5.811368 -2.300443
vt -1.335996 -11.115640
vt 1.715392 -13.418489
vt 1.715392 -11.656870
vt -1.715392 -13.418489
vt -1.715392 -11.656870
vt 1.199271 -15.512939
vt -2.083333 -7.953806
vt 3.856061 -15.512939
vt -4.792142 -1.749013
vt -0.979437 -11.838950
vt 4.792142 -1.749013
vt 0.979437 -11.838950
vt -2.003480 -1.749013
vt 2.003480 -1.749013
vt 0.000000 -5.493176
vt -0.802304 -15.512939
vt 0.802304 -15.512939
vt 4.166667 -7.724147
vt -3.295224 -15.512939
vt 7.724147 -15.512939
vt 4.166667 -6.108334
vt 6.108334 -15.512939
vt 5.014136 -15.512939
vt 2.083333 -7.953806
vt -3.856061 -15.512939
vt -1.199271 -15.512939
vt 0.000000 -7.461680
vt 1.715392 -15.512939
vt -1.715392 -15.512939
vt -0.802304 -12.676100
vt -1.122717 -12.819950
vt 0.802304 -12.676100
vt 1.122717 -12.819950
vt -3.709516 -0.159774
vt 3.709516 -3.113309
vt -5.811368 -0.159774
vt -3.363529 -10.428920
vt 5.811368 -3.113309
vt -1.163304 -11.029309
vt -3.856061 -13.418489
vt -3.856061 -11.656870
vt -1.199271 -11.656870
vt -0.833289 -14.041150
vt 5.046948 2.462819
vt 5.046948 -11.359910
vt 5.110227 -10.978109
vt 2.003480 2.462819
vt 2.003480 -11.359910
vt -3.295224 -11.752001
vt 7.724147 -11.752001
vt -2.927134 -14.174880
vt 5.716240 -9.744094
vt 5.716240 -5.209263
vt -3.236426 -11.352160
vt 6.108334 -12.421289
vt 5.014136 -12.421289
vt 5.327157 -12.463380
vt 2.003480 -9.744094
vt 2.003480 -5.209263
s 1
usemtl PantsMaterial
f 47/76/41 48/79/42 49/81/43
f 48/79/42 47/76/41 50/85/44
f 47/77/41 51/87/45 52/91/46
f 51/87/45 47/77/41 49/82/43
f 53/94/47 52/92/46 54/97/48
f 52/92/46 53/94/47 55/100/49
f 52/92/46 55/100/49 47/78/41
f 47/78/41 55/100/49 56/103/50
f 47/78/41 56/103/50 50/86/44
f 50/86/44 56/103/50 57/106/51
f 49/83/43 58/108/52 59/110/53
f 58/108/52 49/83/43 48/80/42
f 49/84/43 60/114/54 51/88/45
f 60/114/54 49/84/43 59/111/53
f 52/93/46 61/118/55 54/98/48
f 61/118/55 52/93/46 51/89/45
f 57/107/51 62/121/56 63/125/57
f 62/121/56 57/107/51 56/104/50
f 64/127/58 65/130/59 66/133/60
f 65/130/59 64/127/58 67/136/61
f 67/136/61 64/127/58 68/139/62
f 68/139/62 64/127/58 53/95/47
f 68/139/62 53/95/47 61/119/55
f 61/119/55 53/95/47 54/99/48
f 69/142/63 53/96/47 64/128/58
f 53/96/47 69/142/63 55/101/49
f 56/105/50 69/143/63 62/122/56
f 69/143/63 56/105/50 55/102/49
f 59/112/53 70/146/64 71/148/65
f 70/146/64 59/112/53 58/109/52
f 51/90/45 68/140/62 61/120/55
f 68/140/62 51/90/45 60/115/54
f 59/113/53 72/152/66 60/116/54
f 72/152/66 59/113/53 71/149/65
f 63/126/57 73/156/67 74/159/68
f 73/156/67 63/126/57 62/123/56
f 60/117/54 67/137/61 68/141/62
f 67/137/61 60/117/54 72/153/66
f 72/154/66 65/131/59 67/138/61
f 65/131/59 72/154/66 75/161/69
f 76/164/70 65/132/59 75/162/69
f 65/132/59 76/164/70 77/167/71
f 77/167/71 76/164/70 73/157/67
f 73/157/67 76/164/70 78/170/72
f 73/157/67 78/170/72 74/160/68
f 66/134/60 65/132/59 77/167/71
f 77/168/71 64/129/58 66/135/60
f 64/129/58 77/168/71 69/144/63
f 62/124/56 77/169/71 73/158/67
f 77/169/71 62/124/56 69/145/63
f 71/150/65 78/171/72 76/165/70
f 78/171/72 71/150/65 70/147/64
f 72/155/66 76/166/70 75/163/69
f 76/166/70 72/155/66 71/151/65
